HIERARCHY
ROOT Hips
{
     OFFSET 1.88212 96.90440 -13.34250
     CHANNELS 6 Xposition Yposition Zposition Zrotation Xrotation Yrotation
     JOINT Spine
     {
          OFFSET 0.00000 11.89050 0.00000
          CHANNELS 3 Zrotation Xrotation Yrotation
          JOINT Spine1
          {
               OFFSET -0.00000 25.65740 0.12766
               CHANNELS 3 Zrotation Xrotation Yrotation
               JOINT HEad
               {
                    OFFSET 0.00000 8.73416 0.01134
                    CHANNELS 3 Zrotation Xrotation Yrotation
                    End Site
                    {
                         OFFSET -0.29000 12.77420 2.51395
                    }
               }
               JOINT LeftShoulder1
               {
                    OFFSET 8.99000 -0.36225 -0.22000
                    CHANNELS 3 Zrotation Xrotation Yrotation
                    JOINT LeftArm
                    {
                         OFFSET 10.28270 -0.00338 0.32212
                         CHANNELS 3 Zrotation Xrotation Yrotation
                         JOINT LeftForeArm
                         {
                              OFFSET 32.76690 0.09914 -1.42434
                              CHANNELS 3 Zrotation Xrotation Yrotation
                              JOINT LeftHand
                              {
                                   OFFSET 27.56430 0.08536 1.02216
                                   CHANNELS 3 Zrotation Xrotation Yrotation
                                   End Site
                                   {
                                        OFFSET 16.74430 -0.60000 1.50291
                                   }
                              }
                         }
                    }
               }
               JOINT RightShoulder
               {
                    OFFSET -8.99000 -0.36225 -0.22000
                    CHANNELS 3 Zrotation Xrotation Yrotation
                    JOINT RightArm
                    {
                         OFFSET -10.28270 -0.00338 0.32212
                         CHANNELS 3 Zrotation Xrotation Yrotation
                         JOINT RightForeArm
                         {
                              OFFSET -32.89710 0.09914 -1.42434
                              CHANNELS 3 Zrotation Xrotation Yrotation
                              JOINT RightHand
                              {
                                   OFFSET -27.49210 0.08536 1.02216
                                   CHANNELS 3 Zrotation Xrotation Yrotation
                                   End Site
                                   {
                                        OFFSET -16.63120 -0.60000 1.50291
                                   }
                              }
                         }
                    }
               }
          }
     }
     JOINT LeftUpLeg
     {
          OFFSET 8.94580 -8.66707 0.10165
          CHANNELS 3 Zrotation Xrotation Yrotation
          JOINT LeftLeg
          {
               OFFSET 0.00000 -44.42270 1.37270
               CHANNELS 3 Zrotation Xrotation Yrotation
               JOINT LeftFoot
               {
                    OFFSET -0.25355 -42.09240 -1.46059
                    CHANNELS 3 Zrotation Xrotation Yrotation
                    JOINT LeftToes
                    {
                         OFFSET -0.04000 -4.41509 8.49910
                         CHANNELS 3 Zrotation Xrotation Yrotation
                         End Site
                         {
                              OFFSET 0.08000 -0.04745 9.77979
                         }
                    }
               }
          }
     }
     JOINT RightUpLeg
     {
          OFFSET -8.94580 -8.66707 0.10165
          CHANNELS 3 Zrotation Xrotation Yrotation
          JOINT RightLeg
          {
               OFFSET 0.00000 -44.42270 1.37270
               CHANNELS 3 Zrotation Xrotation Yrotation
               JOINT RightFoot
               {
                    OFFSET 0.25355 -42.09240 -1.46059
                    CHANNELS 3 Zrotation Xrotation Yrotation
                    JOINT RightToes
                    {
                         OFFSET 0.04000 -4.41509 8.49910
                         CHANNELS 3 Zrotation Xrotation Yrotation
                         End Site
                         {
                              OFFSET -0.08000 -0.13745 9.77979
                         }
                    }
               }
          }
     }
}
MOTION
Frames: 10
Frame Time: 0.01667
10.93192 92.88359 -24.18375 13.20707 -5.04137 87.24583 -7.44563 13.98601 15.22452 0.01303 -0.01004 -0.08257 -1.00557 -6.39550 0.50094 2.04450 -0.39496 -16.95057 -66.82131 -35.26202 -0.34249 -99.13475 -20.98655 -110.26807 -57.56974 10.42464 -2.33785 9.53671 -2.40484 -18.26543 98.29645 7.52113 68.29639 30.08340 40.14938 92.31876 1.87209 18.94478 10.88227 34.65062 3.01660 -20.49081 -32.71391 19.35199 75.18653 -10.09057 -0.17284 -0.03339 5.05262 -3.99065 -37.04157 -24.43299 2.30270 24.47014 38.92360 16.72014 -45.60882 -11.33406 0.14211 0.05346 -3.54607 -23.21107 8.87960 
10.94349 92.39186 -25.80810 13.33139 -6.36003 84.49116 -4.90426 14.18909 11.00457 0.00358 -0.00644 -0.06966 -0.47337 -6.05610 5.89294 1.21687 -0.28648 -11.31821 -60.65737 -38.80195 -5.40918 -98.41915 -18.55314 -104.82477 -56.60024 10.90903 -6.09067 8.95263 -1.73922 -13.19524 98.44140 7.40591 67.46915 29.46836 40.65091 92.89249 8.14598 14.59063 9.43492 33.48914 4.92278 -22.58216 -31.45408 18.76655 74.30029 -12.47378 -0.11469 -0.03457 6.22295 -5.54324 -32.62700 -24.79594 -1.51950 22.02510 45.72533 19.28904 -53.53612 -12.40181 0.01295 0.02887 -2.22478 -28.08307 18.24549 
10.86869 91.94737 -27.47584 13.50848 -7.47634 82.14324 -2.53714 14.10343 5.52752 -0.01085 -0.00103 -0.05875 0.04459 -5.18767 12.18444 -0.00726 0.17386 -4.88809 -54.53030 -42.25614 -10.52931 -98.84219 -15.19136 -101.27933 -56.74829 12.38158 -9.51119 8.11288 -0.59448 -7.19098 98.43040 7.32733 66.95596 29.26037 40.65813 93.09328 4.72866 15.91674 10.78108 32.36515 6.52512 -24.53278 -30.61455 18.12150 74.23597 -14.42259 -0.07322 -0.02847 7.71128 -7.47220 -29.35087 -25.53046 -5.08128 18.33323 50.99392 22.45697 -57.72047 -17.63149 -0.24504 -0.04928 2.98801 -29.32496 23.15690 
10.72594 91.57359 -29.14120 13.75407 -8.37311 80.20745 -0.80343 13.94065 -0.58775 -0.02918 0.00205 -0.05369 0.71590 -4.08486 18.84583 -1.23722 0.51641 1.75168 -48.40156 -45.31664 -15.80284 -100.24080 -11.34929 -100.23077 -55.53015 13.32692 -13.62406 7.33288 0.57500 -0.73613 98.32158 7.28980 66.67382 29.29414 40.40779 92.97902 8.67787 13.54148 10.07057 31.34223 7.86792 -26.34342 -30.13419 17.36052 74.82027 -15.97986 -0.04364 -0.02136 9.46103 -9.51714 -27.10094 -26.28599 -7.97555 14.62275 55.00667 25.55711 -59.86132 -19.81696 -0.06843 0.00029 4.85272 -31.01738 26.46181 
10.53669 91.27692 -30.78293 14.07526 -9.02038 78.66349 0.37377 13.71955 -6.00927 -0.01896 0.00572 0.04745 1.20839 -2.82321 24.44973 -3.55611 0.58887 7.29921 -41.95291 -47.70047 -20.99145 -102.05030 -8.68085 -101.65973 -38.79177 13.44011 -14.13458 6.37876 1.54230 4.76164 98.25645 7.26078 66.67168 29.55663 39.85090 92.56351 6.92578 14.27728 11.02063 30.49217 9.06213 -28.00998 -30.09117 15.51866 77.94371 -16.25546 0.00065 -0.02027 10.84442 -11.24673 -27.83833 -27.06359 -10.19184 10.99698 57.94495 28.59756 -60.49604 -22.73114 -0.03713 0.00678 7.00657 -31.50329 27.73470 
10.32554 90.99875 -32.39185 14.46586 -9.42533 77.47887 1.03918 13.48451 -10.74308 -0.01764 0.00710 0.05226 1.55125 -1.52425 29.26156 -5.41371 0.40768 11.84341 -36.44938 -49.59811 -26.78291 -102.95394 -5.93233 -105.25903 -51.44986 18.05228 -15.46413 5.57076 2.40081 9.59567 98.02106 7.22712 66.86684 29.85157 39.18613 92.04233 9.42234 12.85741 10.77766 30.37095 10.38327 -28.56196 -30.50256 13.07721 81.80565 -15.62273 -0.01306 -0.01941 11.59320 -12.82703 -31.05434 -27.84846 -11.77208 7.54828 59.98120 31.56467 -60.01999 -24.62995 -0.00205 0.01786 8.02717 -31.92229 28.09004 
10.11678 90.74448 -33.94152 14.91023 -9.61264 76.60901 1.26358 13.27218 -14.79403 -0.01660 0.00935 0.05155 1.74211 -0.29608 33.28004 -6.64164 0.23252 15.41912 -32.37262 -51.32477 -33.95679 -102.00559 -4.27170 -110.53985 -26.67986 13.31132 -14.77924 4.88251 3.19435 13.79515 97.64864 7.12111 67.21141 30.13313 38.42983 91.52427 8.51650 13.10185 11.54365 30.78732 11.79000 -28.07696 -31.38598 10.34214 86.12190 -14.34511 -0.05312 -0.02045 11.55954 -14.54203 -36.31820 -28.60739 -12.80848 4.35626 61.48653 34.75858 -55.25436 -29.49659 0.20674 0.16710 9.90168 -31.44064 23.36807 
9.93346 90.51863 -35.40309 15.38786 -9.62546 75.99879 1.06029 12.85862 -17.75851 -0.01503 0.01305 0.04691 1.80733 1.04490 36.19747 -7.61873 0.39783 18.12925 -30.65210 -53.17528 -43.31891 -100.69511 -8.25026 -113.71204 -30.07829 15.31693 -10.06155 4.00437 4.41512 17.06295 97.36113 6.98145 67.94688 30.33118 37.68574 91.05953 10.16443 12.13033 11.51019 31.52783 13.22365 -26.62987 -32.63703 8.37129 88.57489 -13.45792 -0.04126 0.00284 11.35892 -16.59569 -41.05096 -29.31487 -13.37942 1.48249 62.06273 37.70197 -51.27635 -28.74012 0.01811 -0.01393 7.40460 -30.64952 20.36814 
9.79520 90.31677 -36.75874 15.87975 -9.51203 75.59692 0.52324 12.37613 -19.68208 -0.01327 0.01671 0.04145 1.81035 2.35682 38.12817 -8.37110 0.82752 19.82974 -30.03619 -54.58616 -49.30848 -99.60936 -11.87817 -115.13211 -18.32619 13.86105 -10.40369 3.39229 5.59690 19.40877 96.89575 6.79924 68.53916 30.45080 36.95831 90.66904 9.75203 12.10142 12.03941 32.43133 14.63174 -24.28040 -34.32375 7.10333 89.41962 -12.80845 -0.02798 0.00637 11.12331 -18.92299 -45.22956 -29.95017 -13.55848 -1.03307 61.77769 40.31905 -47.67766 -30.08340 0.04565 0.00608 7.70835 -30.14096 18.05056 
9.70801 90.14891 -37.99704 16.38453 -9.30860 75.37797 -0.81473 12.35539 -19.38424 -0.06536 0.03588 0.12678 2.60995 3.26671 37.95241 -8.15645 1.41759 19.47930 -30.57096 -55.62331 -53.03967 -98.50549 -14.54910 -115.09776 -22.29915 14.58901 -7.70407 3.94460 6.40349 19.56232 96.25956 6.70336 68.90906 30.46107 36.33479 90.41457 10.78589 11.43828 12.07035 33.09312 15.86270 -22.14885 -36.21110 6.15411 89.92259 -12.38175 -0.01705 0.00649 10.94052 -21.44533 -48.88342 -30.36068 -12.90246 -2.05567 60.70821 41.29011 -44.39074 -29.80617 0.02069 -0.00615 6.96093 -29.58362 16.37489 
